<svg width="40" height="40" viewBox="0 0 40 40" fill="none" xmlns="http://www.w3.org/2000/svg">
<rect width="40" height="40" rx="8" fill="white"/>
<path d="M10.457 10.0586C10.2488 10.0578 10.0797 10.2221 10.0806 10.4246C10.0813 10.626 10.2499 10.7887 10.457 10.7879H13.1339L14.9609 22.5113C14.9889 22.6894 15.1465 22.8209 15.3319 22.8208H25.8926C27.13 22.8208 28.2156 22.0041 28.5279 20.84L29.8622 15.8691C30.1535 14.7834 29.2972 13.7053 28.1431 13.7053H14.3464L13.8287 10.3708C13.8019 10.1916 13.644 10.0587 13.4578 10.0586H10.457ZM14.4599 14.4347H28.1431C28.8247 14.4347 29.309 15.045 29.1369 15.6861L27.8026 20.657C27.5755 21.5035 30.0368 14.0917 29.1369 14.0917L14.3464 14.4347L15.653 22.0915L14.4599 14.4347Z" fill="#92B621"/>
<path d="M15.3296 22.0918C15.3296 22.0918 14.875 22.0867 14.4106 22.3125C13.9462 22.5383 13.4556 23.0102 13.4556 23.9138C13.4556 24.8127 13.9462 25.2894 14.4106 25.5152C14.875 25.7409 15.3296 25.7358 15.3296 25.7358H28.8302C29.0363 25.7352 29.2032 25.5729 29.2039 25.3725C29.2032 25.1721 29.0363 25.0099 28.8302 25.0092H15.3296C15.3296 25.0092 15.0339 25.0027 14.7483 24.8639C14.4628 24.725 14.2058 24.4701 14.2058 23.9138C14.2058 23.3586 14.4628 23.1026 14.7483 22.9638C15.0339 22.825 15.3296 22.8212 15.3296 22.8212V22.0918Z" fill="#92B621"/>
<path d="M18.3324 26.2988C17.3013 26.2988 16.4556 27.1184 16.4556 28.1208C16.4556 29.1233 17.3013 29.9429 18.3324 29.9429C19.3635 29.9429 20.2065 29.1233 20.2065 28.1208C20.2065 27.1184 19.3635 26.2988 18.3324 26.2988ZM18.3324 27.0255C18.9582 27.0255 19.4563 27.5125 19.4563 28.1208C19.4563 28.7292 18.9582 29.2135 18.3324 29.2135C17.7067 29.2135 17.2058 28.7292 17.2058 28.1208C17.2058 27.5125 17.7067 27.0255 18.3324 27.0255Z" fill="#92B621"/>
<path d="M25.2387 26.2988C24.2076 26.2988 23.3618 27.1184 23.3618 28.1208C23.3618 29.1233 24.2076 29.9429 25.2387 29.9429C26.2698 29.9429 27.1127 29.1233 27.1127 28.1208C27.1127 27.1184 26.2698 26.2988 25.2387 26.2988ZM25.2387 27.0255C25.8644 27.0255 26.3626 27.5125 26.3626 28.1208C26.3626 28.7292 25.8644 29.2135 25.2387 29.2135C24.6129 29.2135 24.112 28.7292 24.112 28.1208C24.112 27.5125 24.6129 27.0255 25.2387 27.0255Z" fill="#92B621"/>
<ellipse cx="18.2167" cy="28.2572" rx="1.71429" ry="1.33333" fill="#92B621"/>
<ellipse cx="25.3192" cy="28.2572" rx="1.37143" ry="1.33333" fill="#92B621"/>
</svg>
