<svg width="20" height="20" viewBox="0 0 20 20" fill="none" xmlns="http://www.w3.org/2000/svg">
<path d="M2.99988 12C2.84801 12 2.70457 12.0684 2.60896 12.1875C2.60896 12.1875 1.97149 12.9825 1.33119 13.9584C1.01152 14.4458 0.689019 14.9793 0.439666 15.4977C0.191226 16.0152 0 16.5046 0 17.0005C0 18.6514 1.34902 20.0004 2.99991 20.0004C4.65079 20.0004 5.99982 18.6514 5.99982 17.0005C5.99982 16.5046 5.80857 16.0152 5.55921 15.4977C5.30984 14.9802 4.98736 14.4468 4.66769 13.9584C4.02832 12.9825 3.39086 12.1875 3.39086 12.1875C3.29617 12.0694 3.15175 12 2.99988 12Z" fill="white"/>
<path d="M12.3124 0C12.1802 0 12.0527 0.0524983 11.959 0.146247C8.89353 3.21167 5.82691 6.2783 2.76148 9.34372C2.56649 9.53872 2.56649 9.85558 2.76148 10.0506C2.95647 10.2456 3.27334 10.2456 3.46833 10.0506L3.97738 9.54153L12.2478 17.811C12.4428 18.0059 12.7596 18.0059 12.9546 17.811L19.8525 10.9131C20.0475 10.7181 20.0475 10.4012 19.8525 10.2062L11.5831 1.93777L12.6668 0.854057C12.8618 0.659063 12.8618 0.342201 12.6668 0.147207C12.573 0.0534609 12.4455 0.000962419 12.3133 0.000962419L12.3124 0ZM10.8752 2.64472L15.5167 7.28522L5.3067 8.21332L10.8752 2.64472Z" fill="white"/>
</svg>
