<svg width="237" height="40" viewBox="0 0 237 40" fill="none" xmlns="http://www.w3.org/2000/svg">
<g clip-path="url(#clip0_331_1686)">
<path d="M13.6945 11.825V17.35C15.2344 17.35 16.3112 17.2499 16.9313 17.0537C17.5485 16.8533 17.8555 16.2045 17.8555 15.1091V13.7412C17.8555 12.955 17.561 12.437 16.9652 12.1913C16.365 11.9476 15.2779 11.825 13.6945 11.825ZM0 7.56968H9.69469C16.1549 7.56968 20.5316 7.68767 22.818 7.92278C25.1088 8.15908 26.973 8.76145 28.4159 9.7265C29.8581 10.6934 30.5755 12.2399 30.5755 14.3581C30.5755 16.2934 30.0652 17.5916 29.0499 18.256C28.0296 18.9214 26.0246 19.3215 23.0304 19.4556C25.7423 19.7737 27.5639 20.1985 28.4971 20.7323C29.424 21.2633 30.0073 21.7514 30.239 22.1962C30.4639 22.6411 30.5755 23.8669 30.5755 25.8755V32.4307H17.8555V24.1686C17.8555 22.8388 17.6384 22.014 17.1897 21.6989C16.7466 21.3807 15.5817 21.221 13.6945 21.221V32.4307H0V7.56968Z" fill="white"/>
<path d="M37.2109 7.56968H60.0473V12.5463H50.911V17.261H59.4624V21.9893H50.911V27.4556H60.96V32.4307H37.2109V7.56968Z" fill="white"/>
<path d="M97.649 16.8496H83.9562V14.6843C83.9562 13.3205 83.8256 12.4666 83.5621 12.1197C83.3042 11.7762 82.6865 11.605 81.7081 11.605C80.8643 11.605 80.292 11.7546 79.9855 12.0462C79.6806 12.3412 79.5314 13.0993 79.5314 14.3158V25.7658C79.5314 26.8386 79.6806 27.5421 79.9855 27.8797C80.292 28.218 80.8978 28.3869 81.8061 28.3869C82.8067 28.3869 83.4833 28.1979 83.8415 27.8139C84.1998 27.4318 84.3805 26.6827 84.3805 25.5727V22.743H81.6102V19.1204H97.649V32.4307H89.0414L87.7756 30.2157C86.8458 30.9525 85.6677 31.5055 84.2459 31.874C82.8226 32.2416 81.1469 32.4245 79.2177 32.4245C76.915 32.4245 74.7598 32.1721 72.7516 31.6661C70.7441 31.1595 69.2207 30.5354 68.1806 29.7879C67.138 29.0419 66.4856 28.2581 66.2259 27.4379C65.9666 26.6184 65.8359 25.3874 65.8359 23.747V16.6605C65.8359 14.3794 66.1078 12.7248 66.6473 11.694C67.1946 10.662 68.7478 9.71606 71.3182 8.85509C73.8879 7.99656 77.2108 7.56723 81.2878 7.56723C85.2991 7.56723 88.629 7.93979 91.2759 8.68672C93.9195 9.43303 95.6406 10.3209 96.4454 11.3471C97.2494 12.3736 97.649 13.8648 97.649 15.8196V16.8496Z" fill="white"/>
<path d="M104.284 7.56968H127.12V12.5463H117.98V17.261H126.531V21.9893H117.98V27.4556H128.034V32.4307H104.284V7.56968Z" fill="white"/>
<path d="M163.878 7.56968V32.4307H151.875L144.748 21.1286V32.4307H133.297V7.56968H144.748L152.425 18.7642V7.56968H163.878Z" fill="white"/>
<path d="M187.122 23.5549C186.425 20.7397 185.731 17.2588 185.036 13.1119C183.64 17.8739 182.762 21.3545 182.408 23.5549H187.122ZM194.378 7.56968L202.21 32.4307H188.215L187.479 27.9631H182.583L181.759 32.4307H167.601L174.584 7.56968H194.378Z" fill="white"/>
<path d="M236.999 7.56936V23.8455C236.999 25.6907 236.87 26.9866 236.608 27.7342C236.348 28.4793 235.579 29.2494 234.301 30.0347C233.018 30.8224 231.335 31.4186 229.24 31.8264C227.147 32.2295 224.679 32.4365 221.84 32.4365C218.696 32.4365 215.921 32.1934 213.513 31.7121C211.102 31.2302 209.308 30.6046 208.111 29.8339C206.922 29.0601 206.216 28.2445 206 27.3867C205.782 26.5316 205.671 24.7275 205.671 21.9781V7.56936H219.366V25.8303C219.366 26.8915 219.492 27.5726 219.74 27.8677C219.988 28.1657 220.491 28.3125 221.251 28.3125C222.122 28.3125 222.679 28.1519 222.93 27.8238C223.18 27.4985 223.301 26.7278 223.301 25.5153V7.56936H236.999Z" fill="white"/>
<path d="M237.001 0.000241041H65.8359V3.79004H237.001V0.000241041Z" fill="#92B621"/>
<path d="M163.877 36.2118H0V40H163.877V36.2118Z" fill="#4BBEEE"/>
</g>
<defs>
<clipPath id="clip0_331_1686">
<rect width="237" height="40" fill="white"/>
</clipPath>
</defs>
</svg>
