<svg width="39" height="39" viewBox="0 0 39 39" fill="none" xmlns="http://www.w3.org/2000/svg">
<circle cx="19.5" cy="19.5" r="19.5" fill="#92B621"/>
<path d="M19.6614 30.7718C19.8102 30.918 20.0106 31 20.2192 31H20.2752C20.4839 31 20.6842 30.918 20.8331 30.7718C21.1363 30.474 28.274 23.4129 29.3602 17.9527C29.5743 16.8274 29.5319 15.6683 29.2361 14.5617C28.9402 13.4551 28.3987 12.4294 27.6516 11.5611C26.7637 10.45 25.6371 9.55299 24.3553 8.93654C23.0736 8.32009 21.6695 8 20.2472 8C18.8249 8 17.4209 8.32009 16.1391 8.93654C14.8574 9.55299 13.7308 10.45 12.8429 11.5611C12.0958 12.4294 11.5542 13.4551 11.2584 14.5617C10.9626 15.6683 10.9201 16.8274 11.1342 17.9527C12.2204 23.4129 19.3581 30.474 19.6614 30.7718ZM14.0737 12.5715C14.8122 11.6423 15.7509 10.8919 16.8199 10.3761C17.8888 9.86027 19.0604 9.59237 20.2472 9.59237C21.4341 9.59237 22.6057 9.86027 23.6746 10.3761C24.7436 10.8919 25.6823 11.6423 26.4208 12.5715C27.0167 13.2587 27.4501 14.0715 27.6885 14.9493C27.927 15.8271 27.9645 16.7474 27.7982 17.6417C26.969 21.8116 21.9115 27.3596 20.2472 29.0947C18.5826 27.3604 13.5263 21.8155 12.6963 17.6417C12.53 16.7474 12.5675 15.8271 12.8059 14.9493C13.0444 14.0715 13.4777 13.2587 14.0737 12.5715Z" fill="white"/>
<path d="M20.2446 21.3219C21.1119 21.3218 21.9597 21.0646 22.6808 20.5828C23.4018 20.1009 23.9639 19.4161 24.2957 18.6148C24.6276 17.8136 24.7144 16.9319 24.5452 16.0813C24.376 15.2307 23.9584 14.4494 23.3451 13.8361C22.7319 13.2229 21.9506 12.8052 21.1 12.636C20.2494 12.4668 19.3677 12.5536 18.5664 12.8855C17.7652 13.2174 17.0803 13.7794 16.5985 14.5005C16.1166 15.2216 15.8594 16.0694 15.8594 16.9366C15.8607 18.0993 16.3231 19.2139 17.1452 20.036C17.9673 20.8581 19.082 21.3206 20.2446 21.3219ZM20.2446 14.1441C20.797 14.1442 21.3369 14.308 21.7961 14.6149C22.2554 14.9218 22.6133 15.358 22.8246 15.8683C23.0359 16.3786 23.0912 16.9401 22.9834 17.4818C22.8756 18.0236 22.6096 18.5211 22.219 18.9117C21.8284 19.3022 21.3308 19.5682 20.7891 19.6759C20.2473 19.7836 19.6858 19.7283 19.1755 19.5168C18.6653 19.3054 18.2291 18.9475 17.9223 18.4882C17.6155 18.0289 17.4517 17.489 17.4517 16.9366C17.4526 16.1962 17.7472 15.4864 18.2708 14.9629C18.7944 14.4394 19.5042 14.1449 20.2446 14.1441Z" fill="white"/>
</svg>
