<svg width="39" height="39" viewBox="0 0 39 39" fill="none" xmlns="http://www.w3.org/2000/svg">
<circle cx="19.5" cy="19.5" r="19.5" fill="#92B621"/>
<mask id="mask0_331_1672" style="mask-type:alpha" maskUnits="userSpaceOnUse" x="8" y="8" width="24" height="24">
<circle cx="20" cy="20" r="12" fill="#D9D9D9"/>
</mask>
<g mask="url(#mask0_331_1672)">
<path d="M37.5016 -0.638672H2.5052C1.46004 -0.633463 0.614575 0.212039 0.609375 1.25715V32.0696C0.611111 33.1147 1.45835 33.962 2.5052 33.9637H37.5016C38.5451 33.9619 39.3905 33.12 39.3975 32.0765V1.25697C39.3957 0.210084 38.5485 -0.635205 37.5016 -0.638672ZM1.41809 1.25715C1.41809 0.896039 1.5969 0.559239 1.89377 0.356128C2.07433 0.238075 2.2844 0.175572 2.49969 0.173835H37.5015C38.1004 0.173835 38.5865 0.65819 38.5883 1.25717V4.0853H18.326C17.8312 4.0853 17.3538 4.26933 16.9858 4.59743L15.0743 6.30752C14.8521 6.50544 14.5639 6.61482 14.2653 6.61482H1.41817L1.41809 1.25715ZM37.503 33.1754H2.50475C2.21482 33.1754 1.93706 33.0591 1.73217 32.8525C1.52905 32.6459 1.41447 32.3663 1.41794 32.0764V7.43063H14.2704C14.7652 7.4289 15.2426 7.24661 15.6107 6.91677L17.5221 5.21192C17.7443 5.01401 18.0325 4.90463 18.3311 4.90463H38.588V32.0766C38.5863 32.6756 38.1019 33.1617 37.5012 33.1634L37.503 33.1754ZM4.45098 1.86648C3.80862 1.86648 3.23049 2.25363 2.98395 2.84737C2.73916 3.44111 2.87458 4.12342 3.32944 4.57826C3.78255 5.03137 4.46659 5.16679 5.05859 4.92201C5.65233 4.67548 6.03948 4.09735 6.03948 3.45499C6.03948 2.57823 5.32769 1.86648 4.45098 1.86648ZM4.45098 4.23453C4.13674 4.23453 3.852 4.04529 3.73049 3.75364C3.61069 3.46197 3.67667 3.12688 3.90062 2.90293C4.12285 2.68071 4.45791 2.613 4.7496 2.73452C5.04127 2.85431 5.23049 3.13904 5.23049 3.45501C5.22875 3.88383 4.88153 4.23279 4.45098 4.23453ZM8.87111 1.86648C8.22875 1.86648 7.65062 2.25363 7.40409 2.84737C7.1593 3.44111 7.29471 4.12342 7.74957 4.57826C8.20268 5.03137 8.88673 5.16679 9.47873 4.92201C10.0725 4.67548 10.4596 4.09735 10.4596 3.45499C10.4596 3.03311 10.2929 2.63032 9.99433 2.33175C9.69745 2.03487 9.29297 1.86648 8.87111 1.86648ZM8.87111 4.23453C8.55687 4.23453 8.27213 4.04529 8.15062 3.75364C8.03083 3.46197 8.0968 3.12688 8.32076 2.90293C8.54298 2.68071 8.87805 2.613 9.16974 2.73452C9.4614 2.85431 9.65236 3.13904 9.65236 3.45501C9.65236 3.66161 9.56903 3.85953 9.42319 4.00537C9.27736 4.15294 9.07771 4.23453 8.87111 4.23453ZM14.8831 3.45502C14.8831 2.81266 14.4977 2.23279 13.904 1.98799C13.3102 1.74147 12.6279 1.87862 12.1731 2.33175C11.7182 2.78659 11.5828 3.4689 11.8293 4.06263C12.0741 4.65637 12.654 5.04179 13.2963 5.04179C14.1714 5.04005 14.8814 4.33 14.8831 3.45502ZM13.2963 4.23453C12.9803 4.23453 12.6956 4.04529 12.5758 3.75364C12.4543 3.46197 12.522 3.12688 12.7442 2.90293C12.9682 2.68071 13.3032 2.613 13.5949 2.73452C13.8849 2.85431 14.0758 3.13904 14.0758 3.45501C14.0758 3.88557 13.7269 4.23453 13.2963 4.23453ZM20.003 8.29528C16.8832 8.29702 13.8936 9.53662 11.6888 11.7432C9.48217 13.948 8.24431 16.941 8.24604 20.0592C8.24604 23.179 9.48564 26.1703 11.6922 28.3752C13.8971 30.58 16.8882 31.8179 20.0082 31.8179C23.1282 31.8179 26.1193 30.5783 28.3242 28.3735C30.5291 26.1669 31.7687 23.1757 31.7687 20.0575C31.7669 16.9377 30.5273 13.9446 28.3208 11.7397C26.1142 9.53484 23.123 8.29528 20.003 8.29528ZM27.7408 12.3109C29.1956 13.7588 30.2095 15.5904 30.6661 17.5923C29.5428 16.3804 27.6157 15.4221 25.1954 14.8492C24.626 12.4256 23.6607 10.5107 22.4593 9.38742V9.38568C24.4645 9.84053 26.2996 10.8544 27.7527 12.311L27.7408 12.3109ZM20.003 31.0105C18.1888 31.0105 16.5689 28.7396 15.6957 25.4514V25.4496C17.1158 25.7135 18.5585 25.842 20.003 25.8385C21.4474 25.8351 22.8901 25.6996 24.3103 25.434C23.437 28.743 21.8172 31.0105 20.003 31.0105ZM20.003 25.0296C18.4856 25.0348 16.9717 24.8803 15.4856 24.5695C14.8745 21.5921 14.8745 18.5211 15.4856 15.5433C16.9718 15.2326 18.4856 15.0763 20.003 15.078C21.5186 15.0763 23.0308 15.2308 24.5168 15.5399C24.8258 17.026 24.9803 18.5416 24.9768 20.0607C24.9803 21.5746 24.8275 23.0868 24.5203 24.5696C23.0341 24.8804 21.5203 25.0348 20.003 25.0296ZM14.6052 24.3439C11.317 23.4758 9.04964 21.8543 9.04964 20.04C9.04964 18.2258 11.317 16.606 14.6088 15.7328C14.3414 17.1546 14.206 18.5973 14.2042 20.0452C14.206 21.4862 14.3413 22.9255 14.6052 24.3439ZM20.003 9.10253C21.8085 9.10253 23.43 11.3768 24.2946 14.6581C21.4474 14.1407 18.5306 14.1407 15.6835 14.6581C16.5637 11.3786 18.18 9.11453 20.003 9.10253ZM25.3972 15.7501C28.6906 16.6233 30.9563 18.2432 30.9563 20.0574C30.9563 21.8716 28.6889 23.4914 25.4008 24.3647V24.3629C25.6664 22.9445 25.8018 21.5035 25.8053 20.0608C25.8035 18.6147 25.6663 17.1702 25.3972 15.7501ZM17.5256 9.39408C16.3138 10.5173 15.3676 12.4444 14.7982 14.8559C12.3746 15.4253 10.4545 16.3906 9.33111 17.5919H9.33284C9.79813 15.5971 10.812 13.7725 12.2599 12.3244C13.7078 10.8748 15.5324 9.86111 17.5256 9.39408ZM9.32786 22.5208C10.4511 23.7326 12.3782 24.6857 14.795 25.2604C15.3679 27.684 16.3349 29.6041 17.5346 30.7275C15.5363 30.2639 13.7082 29.2483 12.2586 27.7987C10.8072 26.3473 9.79315 24.519 9.32786 22.5208ZM22.4754 30.7274C23.6872 29.6007 24.6369 27.6771 25.2115 25.2603C27.6351 24.6909 29.55 23.7256 30.6733 22.5242V22.526C30.208 24.5208 29.1941 26.3472 27.7462 27.7966C26.2966 29.2463 24.4718 30.2604 22.4754 30.7274Z" fill="white"/>
</g>
</svg>
