<svg width="260" height="44" viewBox="0 0 260 44" fill="none" xmlns="http://www.w3.org/2000/svg">
<g clip-path="url(#clip0_254_644)">
<path d="M15.0235 13.0076V19.0851C16.7128 19.0851 17.8942 18.9749 18.5745 18.7592C19.2515 18.5387 19.5883 17.825 19.5883 16.6201V15.1154C19.5883 14.2506 19.2652 13.6808 18.6116 13.4106C17.9532 13.1425 16.7606 13.0076 15.0235 13.0076ZM0 8.32674H10.6355C17.7226 8.32674 22.5241 8.45653 25.0325 8.71515C27.5456 8.97508 29.5907 9.6377 31.1735 10.6992C32.7557 11.7629 33.5427 13.464 33.5427 15.794C33.5427 17.9229 32.9829 19.3508 31.8691 20.0817C30.7498 20.8137 28.5502 21.2538 25.2655 21.4012C28.2405 21.7512 30.2388 22.2184 31.2626 22.8056C32.2795 23.3897 32.9194 23.9266 33.1736 24.416C33.4203 24.9053 33.5427 26.2537 33.5427 28.4631V35.6738H19.5883V26.5856C19.5883 25.1228 19.3501 24.2155 18.8579 23.8689C18.3718 23.5189 17.0939 23.3432 15.0235 23.3432V35.6738H0V8.32674Z" fill="#4C4B47"/>
<path d="M40.8203 8.32674H65.8729V13.8011H55.85V18.9872H65.2312V24.1883H55.85V30.2012H66.8741V35.6738H40.8203V8.32674Z" fill="#4C4B47"/>
<path d="M107.127 18.5346H92.1053V16.1529C92.1053 14.6526 91.9621 13.7134 91.673 13.3318C91.3901 12.9539 90.7124 12.7656 89.6391 12.7656C88.7134 12.7656 88.0855 12.9301 87.7493 13.2509C87.4148 13.5754 87.2511 14.4093 87.2511 15.7475V28.3425C87.2511 29.5226 87.4148 30.2964 87.7493 30.6677C88.0855 31.0399 88.7501 31.2257 89.7465 31.2257C90.8443 31.2257 91.5866 31.0178 91.9796 30.5954C92.3725 30.175 92.5708 29.3511 92.5708 28.13V25.0174H89.5317V21.0325H107.127V35.6738H97.684L96.2954 33.2374C95.2754 34.0479 93.9829 34.6561 92.4232 35.0615C90.8617 35.4659 89.0234 35.667 86.907 35.667C84.3809 35.667 82.0165 35.3894 79.8134 34.8328C77.6111 34.2755 75.9398 33.5891 74.7988 32.7667C73.6549 31.9462 72.9393 31.084 72.6544 30.1818C72.3699 29.2803 72.2266 27.9262 72.2266 26.1218V18.3266C72.2266 15.8174 72.5248 13.9974 73.1166 12.8635C73.717 11.7283 75.421 10.6878 78.2408 9.74069C81.0599 8.79632 84.7053 8.32405 89.178 8.32405C93.5786 8.32405 97.2316 8.73386 100.135 9.55549C103.036 10.3764 104.924 11.3531 105.807 12.482C106.689 13.6111 107.127 15.2514 107.127 17.4016V18.5346Z" fill="#4C4B47"/>
<path d="M114.406 8.32674H139.459V13.8011H129.431V18.9872H138.812V24.1883H129.431V30.2012H140.46V35.6738H114.406V8.32674Z" fill="#4C4B47"/>
<path d="M179.783 8.32674V35.6738H166.616L158.797 23.2416V35.6738H146.234V8.32674H158.797L167.219 20.6407V8.32674H179.783Z" fill="#4C4B47"/>
<path d="M205.283 25.9105C204.518 22.8138 203.757 18.9848 202.995 14.4232C201.463 19.6614 200.5 23.49 200.112 25.9105H205.283ZM213.243 8.32674L221.835 35.6738H206.482L205.674 30.7595H200.304L199.4 35.6738H183.867L191.529 8.32674H213.243Z" fill="#4C4B47"/>
<path d="M260.002 8.32581V26.2296C260.002 28.2593 259.859 29.6848 259.572 30.5071C259.287 31.3267 258.443 32.1738 257.041 33.0377C255.633 33.9042 253.787 34.56 251.49 35.0085C249.193 35.452 246.486 35.6797 243.371 35.6797C239.922 35.6797 236.877 35.4123 234.236 34.8828C231.591 34.3527 229.623 33.6646 228.31 32.8168C227.005 31.9656 226.231 31.0684 225.994 30.1249C225.755 29.1842 225.633 27.1998 225.633 24.1755V8.32581H240.657V28.4129C240.657 29.5801 240.795 30.3294 241.068 30.6539C241.339 30.9818 241.891 31.1433 242.725 31.1433C243.681 31.1433 244.291 30.9666 244.567 30.6057C244.841 30.2479 244.974 29.4 244.974 28.0663V8.32581H260.002Z" fill="#4C4B47"/>
<path d="M260.002 0.00114393H72.2266V4.16992H260.002V0.00114393Z" fill="#92B621"/>
<path d="M179.78 39.8329H0V44H179.78V39.8329Z" fill="#4BBEEE"/>
</g>
<defs>
<clipPath id="clip0_254_644">
<rect width="260" height="44" fill="white"/>
</clipPath>
</defs>
</svg>
