<svg width="39" height="39" viewBox="0 0 39 39" fill="none" xmlns="http://www.w3.org/2000/svg">
<circle cx="19.5" cy="19.5" r="19.5" fill="#92B621"/>
<path d="M28.666 11.334H11.3327C10.141 11.334 9.17685 12.309 9.17685 13.5007L9.16602 26.5007C9.16602 27.6923 10.141 28.6673 11.3327 28.6673H28.666C29.8577 28.6673 30.8327 27.6923 30.8327 26.5007V13.5007C30.8327 12.309 29.8577 11.334 28.666 11.334ZM28.2327 15.9382L20.5735 20.7265C20.2268 20.9432 19.7718 20.9432 19.4252 20.7265L11.766 15.9382C11.6574 15.8772 11.5623 15.7948 11.4864 15.696C11.4105 15.5972 11.3555 15.484 11.3246 15.3633C11.2938 15.2426 11.2877 15.1169 11.3069 14.9938C11.326 14.8707 11.3699 14.7528 11.4359 14.6471C11.5019 14.5415 11.5887 14.4504 11.691 14.3792C11.7932 14.3081 11.9089 14.2585 12.0309 14.2333C12.1529 14.2082 12.2787 14.208 12.4008 14.2329C12.5229 14.2578 12.6386 14.3072 12.741 14.3782L19.9993 18.9173L27.2577 14.3782C27.3601 14.3072 27.4758 14.2578 27.5979 14.2329C27.72 14.208 27.8458 14.2082 27.9678 14.2333C28.0898 14.2585 28.2055 14.3081 28.3077 14.3792C28.41 14.4504 28.4968 14.5415 28.5628 14.6471C28.6288 14.7528 28.6727 14.8707 28.6918 14.9938C28.711 15.1169 28.7049 15.2426 28.6741 15.3633C28.6432 15.484 28.5882 15.5972 28.5123 15.696C28.4364 15.7948 28.3413 15.8772 28.2327 15.9382Z" fill="white"/>
</svg>
