<svg width="39" height="39" viewBox="0 0 39 39" fill="none" xmlns="http://www.w3.org/2000/svg">
<circle cx="19.5" cy="19.5" r="19.5" fill="#92B621"/>
<path d="M25.1356 30.6279C21.3857 30.6279 17.4261 28.7922 14.1221 25.4891C11.0592 22.4262 9.24304 18.7796 9.00906 15.2201C8.92472 13.9403 9.43336 12.6727 10.3697 11.8282C11.1555 11.119 11.955 10.6345 12.7459 10.3858C13.5893 10.1224 14.5188 10.4718 15.0077 11.237C16.1455 13.0176 16.8366 14.6777 17.1215 16.313C17.2282 16.9232 17.0337 17.5635 16.6025 18.0256L15.4983 19.2056C15.3821 19.3295 15.3684 19.5171 15.4639 19.6617C16.0465 20.5456 16.7247 21.3761 17.4795 22.1309C18.4718 23.1232 19.5777 23.9709 20.7672 24.65C20.8962 24.724 21.0675 24.7 21.1828 24.5924L22.2061 23.6336C22.6683 23.2007 23.3086 23.0062 23.9214 23.1129C25.5575 23.3987 27.2159 24.0897 28.9932 25.2241C29.7635 25.7155 30.1112 26.6544 29.8392 27.5073C29.7247 27.8653 29.5612 28.2276 29.3538 28.5831C28.6946 29.7139 27.494 30.4618 26.1437 30.5832C25.8098 30.6133 25.4733 30.6279 25.1359 30.6279H25.1356ZM13.319 11.1895C13.2166 11.1895 13.1133 11.2041 13.0126 11.236C12.3448 11.4451 11.6563 11.8668 10.9669 12.4891C10.2319 13.1526 9.83172 14.1518 9.89883 15.1622C10.1183 18.505 11.8421 21.9493 14.7528 24.86C18.1669 28.2741 22.2902 30.0384 26.0641 29.6967C27.1279 29.6012 28.0703 29.0168 28.5857 28.1355C28.7604 27.836 28.8973 27.5339 28.992 27.237C29.1417 26.7688 28.9455 26.2499 28.5152 25.9753C26.8395 24.9055 25.287 24.2566 23.7688 23.9907C23.4305 23.9322 23.0751 24.0415 22.816 24.2842L21.7919 25.2438C21.3943 25.6164 20.791 25.6913 20.3254 25.4254C19.0671 24.7068 17.8983 23.8117 16.8502 22.7626C16.0524 21.9656 15.3364 21.0878 14.7201 20.1539C14.3974 19.6642 14.449 19.0248 14.8475 18.5988L15.9517 17.4188C16.1935 17.1606 16.3029 16.8052 16.2443 16.4678C15.9801 14.9505 15.3303 13.397 14.2571 11.7179C14.0437 11.3822 13.6848 11.1895 13.319 11.1895Z" fill="white"/>
<path d="M29.4801 20.9094C29.2339 20.9094 29.0351 20.7097 29.0351 20.4645C29.0351 15.1853 24.7397 10.8899 19.4606 10.8899C19.2144 10.8899 19.0156 10.6902 19.0156 10.4449C19.0156 10.1988 19.2153 10 19.4606 10C25.231 10 29.9259 14.6949 29.9259 20.4653C29.925 20.7098 29.7262 20.9094 29.4801 20.9094Z" fill="white"/>
<path d="M25.8586 20.909C25.6125 20.909 25.4137 20.7094 25.4137 20.4641C25.4137 17.1817 22.7432 14.511 19.4606 14.511C19.2144 14.511 19.0156 14.3113 19.0156 14.066C19.0156 13.8199 19.2153 13.6211 19.4606 13.6211C23.2345 13.6211 26.3042 16.6911 26.3042 20.4648C26.3034 20.7092 26.1046 20.9088 25.8584 20.9088L25.8586 20.909Z" fill="white"/>
</svg>
