<svg width="39" height="39" viewBox="0 0 39 39" fill="none" xmlns="http://www.w3.org/2000/svg">
<circle cx="19.5" cy="19.5" r="19.5" fill="#92B621"/>
<path d="M27.435 22.8034L24.4717 22.4651C24.1233 22.4241 23.7701 22.4627 23.4387 22.5779C23.1073 22.6931 22.8063 22.8818 22.5584 23.1301L20.4117 25.2767C17.1 23.592 14.4081 20.9001 12.7234 17.5884L14.8817 15.4301C15.3834 14.9284 15.6284 14.2284 15.5467 13.5167L15.2084 10.5767C15.1425 10.0075 14.8694 9.48242 14.4413 9.10158C14.0131 8.72075 13.4597 8.51079 12.8867 8.51172H10.8684C9.55005 8.51172 8.45338 9.60839 8.53505 10.9267C9.15338 20.8901 17.1217 28.8467 27.0734 29.4651C28.3917 29.5467 29.4884 28.4501 29.4884 27.1317V25.1134C29.5 23.9351 28.6134 22.9434 27.435 22.8034Z" fill="white"/>
</svg>
