<svg width="87" height="60" viewBox="0 0 87 60" fill="none" xmlns="http://www.w3.org/2000/svg">
  <path
    d="M59.8574 0L1.62987 33.7328L1 34.0827C1 44.5105 6.52882 54.2384 14.927 58.4375C18.4263 60.1871 20.9397 60.0381 23.5352 58.7174L82.6026 24.4248C85.277 21.7185 86.13 19.7175 85.8919 14.8368L82.8125 13.0872L70.3552 20.2257C65.1834 15.2713 63.2955 12.0172 61.677 5.38885L62.9368 4.689L62.8668 1.60966L59.8574 0Z"
    fill="#4C4B47" />
  <path
    d="M1 34.0824L4.00936 35.8321M4.00936 35.8321L62.9368 1.60938M4.00936 35.8321V38.9114L3.51946 38.6315V36.9518L2.53967 36.4619C3.02957 45.63 8.76834 54.0282 15.7668 57.1775C20.0841 59.1203 25.2737 57.7281 25.4879 50.179M24.445 50.7389V49.0592L25.4948 49.6891C25.4948 49.8552 25.4925 50.0185 25.4879 50.179M24.445 50.7389L23.9551 50.4589V47.3096M24.445 50.7389L25.4879 50.179M23.9551 47.3096L27.0344 49.1992L85.9618 14.8365M23.9551 47.3096L82.8825 13.0869"
    stroke="white" stroke-width="0.32" />
</svg>
