<svg width="70" height="71" viewBox="0 0 70 71" fill="none" xmlns="http://www.w3.org/2000/svg">
<path d="M13.591 58.9956L13.5346 58.9415C10.1166 55.6357 8.72156 50.0126 10.2901 45.8648C11.4811 42.7153 14.1643 40.6687 17.7657 40.1045C18.8774 38.3454 21.0415 34.0325 22.8313 30.4653C27.3134 21.536 30.6916 14.9903 33.3364 12.0925C36.1181 9.04537 39.9048 7.27038 43.9996 7.09661C48.5273 6.90385 53.0261 8.65098 56.666 12.0146C63.6085 18.4301 64.4418 28.9025 58.5231 35.3575C56.1295 37.968 50.0563 41.8147 41.7388 46.9626C38.2966 49.0928 33.7543 51.9051 31.9987 53.2511C31.7374 56.904 29.9276 59.7597 26.8965 61.2128C22.9075 63.1239 17.2123 62.1928 13.6472 59.0475L13.591 58.9956ZM52.0798 17.0187C49.773 14.887 47.0069 13.7783 44.2904 13.8929C41.9731 13.992 39.9134 14.9588 38.3349 16.6892C36.1183 19.1178 31.9369 27.4481 28.8831 33.529C23.4967 44.2577 22.4754 46.0247 20.3286 46.631L19.9471 46.7383L19.5511 46.7547C17.1648 46.8535 16.774 47.8907 16.6268 48.28C16.0246 49.8721 16.7662 52.569 18.1814 53.9892C19.7093 55.2886 22.4487 55.8066 23.9784 55.0736C24.3527 54.8941 25.3489 54.4164 25.2508 52.0218L25.2344 51.6244L25.3094 51.2337C25.7389 49.0058 27.3281 47.8924 38.1829 41.1724C43.8421 37.6708 51.5928 32.8721 53.539 30.7495C56.5048 27.5127 56.6283 21.222 52.0798 17.0187Z" fill="#4C4B47"/>
<g opacity="0.4">
<path d="M58.5255 35.3542C64.4452 28.898 63.6183 18.4275 56.6769 12.0129C53.4152 8.99876 49.4696 7.29471 45.4343 7.11469C48.1698 7.86806 50.7833 9.33873 53.057 11.4399C59.9984 17.8544 60.8253 28.325 54.9056 34.7811C52.5099 37.3939 46.4449 41.236 38.1215 46.3949C34.6791 48.5208 30.1444 51.3382 28.377 52.6814C28.125 56.3308 26.3154 59.1887 23.2864 60.6438C21.8188 61.3401 20.1347 61.6707 18.4063 61.6252C21.281 62.4888 24.4236 62.396 26.8973 61.2066C29.9352 59.7617 31.7449 56.9039 31.9978 53.2534C33.7641 51.9091 38.3 49.0927 41.7423 46.9668C50.0638 41.8102 56.1298 37.967 58.5255 35.3542ZM18.1868 53.9912C16.7651 52.567 16.031 49.873 16.6257 48.278C16.7732 47.8972 17.1714 46.8586 19.5552 46.7514L19.9484 46.7447L20.3277 46.6332C22.4801 46.0342 23.4999 44.2576 28.879 33.5302C31.9368 27.4427 36.1186 19.123 38.331 16.6924C39.919 14.9605 41.979 14.0001 44.2865 13.8939C43.1077 13.4711 41.8812 13.4047 40.6755 13.3312C35.5116 13.0158 29.732 25.162 26.7018 31.9169C20.9541 44.7303 17.4699 40.8502 14.907 45.6737C12.2294 50.7245 17.8938 55.035 19.4368 54.7784C18.9769 54.5558 18.5443 54.3032 18.1868 53.9912Z" fill="url(#paint0_linear_298_178)"/>
</g>
<path d="M22.1721 43.3229L25.2677 42.3728L38.3207 16.5999L36.9219 14.6797L22.1721 43.3229Z" fill="#4C4B47"/>
<path opacity="0.2" d="M26.8941 61.2073C24.4215 62.3978 21.2788 62.4885 18.403 61.6259C20.1313 61.6693 21.8156 61.3409 23.2831 60.6446C26.3111 59.1905 28.1208 56.3326 28.3738 52.6821L31.9947 53.2541C31.7418 56.9046 29.9321 59.7625 26.8941 61.2073Z" fill="url(#paint1_linear_298_178)"/>
<path d="M23.1618 42.722C22.8182 43.3611 21.944 43.5325 21.2075 43.085L18.6059 41.517C17.8694 41.0694 17.5508 40.1638 17.8945 39.5246L19.3674 36.7275L20.7623 34.0731L22.0845 31.5292L24.8605 26.2423L31.8294 12.9789C32.1712 12.3217 33.0552 12.1574 33.7819 12.5979L36.3853 14.184C37.119 14.6146 37.4374 15.5181 37.1036 16.1643L33.9378 22.2052L31.1549 27.5041L29.8218 30.04L28.4338 32.6845L23.1618 42.722Z" fill="url(#paint2_linear_298_178)"/>
<path d="M22.3901 40.9265C21.9223 41.6411 21.0116 41.8502 20.3554 41.393C19.6991 40.9357 19.5474 39.986 20.0141 39.2726C20.4819 38.5581 21.3926 38.349 22.0489 38.8062C22.7051 39.2613 22.8579 40.212 22.3901 40.9265Z" fill="#4C4B47"/>
<path d="M35.0102 16.7351C34.5425 17.4497 33.6317 17.6588 32.9755 17.2016C32.3192 16.7443 32.1675 15.7946 32.6342 15.0812C33.102 14.3666 34.0128 14.1576 34.669 14.6148C35.3263 15.0709 35.478 16.0206 35.0102 16.7351Z" fill="#4C4B47"/>
<path opacity="0.3" d="M21.9442 60.3156C20.5217 61.1006 18.7925 61.3425 17.064 61.297C17.5009 61.4226 17.9469 61.5404 18.4012 61.627C18.4203 61.6262 18.4203 61.6262 18.4394 61.6254C20.1486 61.6696 21.8219 61.331 23.2814 60.6456C26.2388 59.2265 28.0227 56.4611 28.3401 52.9336C27.941 52.8223 27.0143 57.5164 21.9442 60.3156Z" fill="url(#paint3_linear_298_178)"/>
<g opacity="0.3">
<path opacity="0.3" d="M55.8943 33.5752C60.6994 27.0818 59.5815 17.4696 53.0565 11.4399C50.7831 9.33893 48.1708 7.8673 45.4347 7.11511C46.2995 7.15596 47.1566 7.26526 48.009 7.44181C46.7276 7.07118 45.4235 6.84519 44.0976 6.78511C46.8328 7.5384 49.445 9.01003 51.7185 11.111C58.6613 17.5247 58.9537 26.1246 55.8943 33.5752Z" fill="url(#paint4_linear_298_178)"/>
</g>
<defs>
<linearGradient id="paint0_linear_298_178" x1="47.7156" y1="8.54844" x2="29.6145" y2="63.9982" gradientUnits="userSpaceOnUse">
<stop stop-color="#BDBDBD"/>
<stop offset="0.9946" stop-color="#2E2E2E"/>
</linearGradient>
<linearGradient id="paint1_linear_298_178" x1="21.0528" y1="63.9912" x2="29.657" y2="53.6796" gradientUnits="userSpaceOnUse">
<stop stop-color="white"/>
<stop offset="0.9946" stop-color="#2E2E2E"/>
</linearGradient>
<linearGradient id="paint2_linear_298_178" x1="33.8388" y1="14.2252" x2="19.6808" y2="42.1884" gradientUnits="userSpaceOnUse">
<stop stop-color="#92B621"/>
<stop offset="1" stop-color="#4BBEEE"/>
</linearGradient>
<linearGradient id="paint3_linear_298_178" x1="32.2085" y1="53.1636" x2="17.0694" y2="61.6858" gradientUnits="userSpaceOnUse">
<stop stop-color="white"/>
<stop offset="0.9951"/>
</linearGradient>
<linearGradient id="paint4_linear_298_178" x1="60.005" y1="30.4426" x2="43.5799" y2="5.5636" gradientUnits="userSpaceOnUse">
<stop stop-color="white"/>
<stop offset="0.9951"/>
</linearGradient>
</defs>
</svg>
