<svg width="50" height="57" viewBox="0 0 50 57" fill="none" xmlns="http://www.w3.org/2000/svg">
<path d="M44.954 7.57728C47.8514 7.98093 50.0025 10.4688 50.0025 13.394V17.2669C50.0025 46.1855 32.4206 53.9856 26.7447 55.7503C25.6081 56.1037 24.3937 56.1037 23.2569 55.7503C17.581 53.9856 -0.000976562 46.1855 -0.000976562 17.2669V13.4161C-0.000976562 10.4858 2.15459 7.98046 5.05935 7.59634C12.713 6.58432 18.3476 3.45438 21.6388 1.10362C23.6691 -0.346671 26.3849 -0.372006 28.4324 1.05388C31.7952 3.39558 37.4974 6.53831 44.954 7.57728Z" fill="#4C4B47"/>
<path d="M23.076 34.8668C22.6088 34.8668 22.1587 34.6841 21.8261 34.356L18.3772 30.9541C17.6868 30.2731 17.6868 29.1689 18.3772 28.4879C19.0676 27.8069 20.187 27.8069 20.8774 28.4879L22.9045 30.4875L30.1244 21.256C30.7208 20.4935 31.8311 20.352 32.604 20.9403C33.3771 21.5286 33.5204 22.6237 32.9241 23.3863L24.476 34.1881C24.1654 34.5851 23.6968 34.8309 23.1896 34.8632C23.1516 34.8657 23.1137 34.8668 23.076 34.8668Z" fill="white"/>
<circle cx="25.0027" cy="27.7219" r="13.4323" stroke="white" stroke-width="2.28634"/>
</svg>
