<svg width="66" height="59" viewBox="0 0 66 59" fill="none" xmlns="http://www.w3.org/2000/svg">
<path d="M65.7411 21.2627L59.528 11.4974C59.5233 11.4902 59.5159 11.4849 59.5074 11.483C59.4991 11.4815 59.49 11.4828 59.4827 11.4874L56.9818 13.0786L1.2291 48.5505C1.22168 48.5551 1.21659 48.5625 1.21464 48.571C1.21275 48.5794 1.21438 48.5884 1.219 48.5958L7.43211 58.3611C7.43842 58.3708 7.44904 58.3762 7.45976 58.3762C7.46575 58.3762 7.47196 58.3747 7.47732 58.371L65.731 21.308C65.7384 21.3034 65.7436 21.2959 65.7455 21.2875C65.7474 21.2791 65.7457 21.2701 65.7411 21.2627ZM6.7284 53.3123L5.54128 51.4465L28.4413 36.8769L29.6285 38.7427L6.7284 53.3123ZM35.5253 38.1438C33.7525 39.2711 31.3934 38.747 30.2655 36.9744C29.7192 36.1158 29.5399 35.0959 29.7609 34.1023C29.9817 33.1089 30.5762 32.2609 31.4348 31.7148C32.0537 31.321 32.7565 31.1179 33.4728 31.1179C33.7502 31.1179 34.0297 31.1484 34.3069 31.2099C35.3004 31.4307 36.1484 32.0252 36.6946 32.8841C37.8223 34.6566 37.2978 37.016 35.5253 38.1438ZM38.6822 32.9822L37.4949 31.1164L60.3951 16.5468L61.5822 18.4126L38.6822 32.9822Z" fill="#4C4B47"/>
<path d="M34.3226 31.1462C33.3116 30.9221 32.2742 31.1039 31.4011 31.6598C30.5276 32.2154 29.9229 33.0778 29.6982 34.0886C29.4736 35.0991 29.6559 36.1367 30.2116 37.0102C30.9495 38.1697 32.2054 38.8043 33.4877 38.8043C34.199 38.8043 34.9186 38.6088 35.5618 38.1995C37.365 37.0522 37.8985 34.6521 36.7514 32.8491C36.1957 31.9756 35.3331 31.3709 34.3226 31.1462Z" fill="white"/>
<path d="M45.804 20.2334C45.8145 20.246 45.8328 20.2485 45.8466 20.2401L57.015 13.1344C57.0228 13.1295 57.028 13.1215 57.0297 13.1126C57.0314 13.1036 57.0292 13.0944 57.0237 13.087C52.2519 6.71253 45.2963 2.40093 37.4381 0.946675C29.5392 -0.515253 21.4538 1.05582 14.6719 5.37084C13.0996 6.37111 11.6069 7.51618 10.2351 8.77428C9.67558 9.28751 9.12781 9.82797 8.6068 10.3806C8.14163 10.8739 7.69853 11.3736 7.28982 11.8657C6.65215 12.6342 6.0415 13.4466 5.47475 14.2807C5.13523 14.7807 4.79944 15.3086 4.47658 15.8498C4.0337 16.5926 3.61889 17.357 3.24361 18.1223C2.98411 18.6513 2.73349 19.2017 2.49874 19.7581C2.13656 20.6164 1.80792 21.5029 1.52165 22.3935C1.33517 22.9742 1.16804 23.5467 1.02488 24.0949C0.791766 24.9883 0.594403 25.9097 0.438468 26.8331C0.341154 27.4084 0.257878 28.0029 0.191004 28.6C0.0855924 29.5429 0.021713 30.4994 0.00105134 31.4425C-0.0121448 32.0478 -0.00767645 32.6656 0.0143521 33.2783C0.046212 34.1586 0.116399 35.0508 0.222704 35.9296C0.302091 36.5869 0.399196 37.2288 0.511021 37.8377C0.699026 38.8618 0.944916 39.8996 1.2418 40.923C1.32886 41.2229 1.42481 41.5349 1.52675 41.85C2.10297 43.6274 2.83963 45.361 3.71667 47.0026C3.72104 47.0108 3.72845 47.0167 3.73728 47.019C3.73997 47.0198 3.74281 47.0201 3.74564 47.0201C3.7518 47.0201 3.75789 47.0183 3.76315 47.015L14.9314 39.9095C14.9453 39.9007 14.9504 39.8829 14.9436 39.868C11.0561 31.5184 13.9933 21.488 21.7756 16.5366C29.5581 11.5854 39.888 13.1746 45.804 20.2334ZM3.74433 28.1013L10.1308 28.859L9.99171 30.0306L3.60522 29.2729L3.74433 28.1013ZM3.10066 34.6837L3.04993 33.5047L9.47512 33.228L9.52596 34.407L3.10066 34.6837ZM4.13101 40.4977L3.76089 39.3773L9.86753 37.3604L10.2377 38.4808L4.13101 40.4977ZM11.0119 25.5377L5.04759 23.132L5.48895 22.038L11.4533 24.4435L11.0119 25.5377ZM13.2439 21.0908L7.85999 17.5728L8.50533 16.5848L13.8893 20.1028L13.2439 21.0908ZM16.2309 17.204L11.7391 12.6016L12.5835 11.7775L17.0755 16.38L16.2309 17.204ZM19.5884 14.1976L16.136 8.77155L17.1315 8.13808L20.5839 13.5644L19.5884 14.1976ZM23.3736 12.3728L21.108 6.35376L22.2124 5.93817L24.478 11.9571L23.3736 12.3728ZM28.0958 11.0639L27.1904 4.69689L28.3587 4.53091L29.2641 10.898L28.0958 11.0639ZM34.2379 10.7606L33.0597 10.6969L33.4077 4.27488L34.5859 4.33881L34.2379 10.7606ZM50.7043 10.8661L46.2897 15.5431L45.4317 14.7332L49.8462 10.0565L50.7043 10.8661ZM38.7397 11.7401L37.6196 11.3698L39.6391 5.26359L40.7594 5.63424L38.7397 11.7401ZM41.8549 12.6269L44.8281 6.92409L45.8743 7.4697L42.9012 13.1723L41.8549 12.6269Z" fill="#4C4B47"/>
<path d="M28.4768 36.8141C28.4669 36.7988 28.4464 36.7941 28.4315 36.8041L5.47621 51.409C5.46086 51.4188 5.45634 51.439 5.46606 51.4544L6.68825 53.3755C6.69283 53.3826 6.70029 53.388 6.70876 53.3898C6.71118 53.3904 6.71349 53.3906 6.71591 53.3906C6.72206 53.3906 6.72821 53.3888 6.73347 53.3855L29.6889 38.7805C29.6963 38.7759 29.7015 38.7684 29.7034 38.76C29.7053 38.7515 29.7036 38.7426 29.699 38.7351L28.4768 36.8141Z" fill="white"/>
<path d="M61.6536 18.4048L60.4314 16.4837C60.4268 16.4765 60.4194 16.4712 60.4109 16.4694C60.4023 16.4678 60.3936 16.4691 60.3862 16.4737L37.4308 31.0787C37.4233 31.0833 37.4182 31.0907 37.4163 31.0992C37.4144 31.1076 37.416 31.1166 37.4207 31.124L38.643 33.0451C38.6493 33.0549 38.6599 33.0602 38.6707 33.0602C38.6767 33.0602 38.6828 33.0587 38.6882 33.0551L61.6435 18.4501C61.6589 18.4404 61.6633 18.4202 61.6536 18.4048Z" fill="white"/>
<rect opacity="0.2" x="57.9189" y="12.5859" width="1.84224" height="11.5275" transform="rotate(-33.1222 57.9189 12.5859)" fill="url(#paint0_linear_298_191)"/>
<rect x="10.396" y="11.1865" width="18.1179" height="8.36786" transform="rotate(-27.1968 10.396 11.1865)" fill="#D9D9D9"/>
<rect x="26.7202" y="4.34473" width="14.3871" height="8.61149" transform="rotate(-6.00774 26.7202 4.34473)" fill="#D9D9D9"/>
<path d="M13.1743 15.7786L15.2513 14.6038L13.1954 13.3925L13.1743 15.7786ZM39.1947 9.60002L38.1087 7.47533L36.8116 9.47816L39.1947 9.60002ZM14.2865 14.2964C16.1958 11.6536 19.8365 9.03477 24.0956 7.69759C28.3509 6.36163 33.1978 6.31261 37.5319 8.76895L37.7356 8.40939C33.2773 5.88265 28.3062 5.94249 23.9718 7.30327C19.6414 8.66283 15.9208 11.3286 13.9515 14.0543L14.2865 14.2964Z" fill="white"/>
<rect x="3.4668" y="12.7764" width="12.9171" height="1.70116" transform="rotate(33.647 3.4668 12.7764)" fill="#92B621"/>
<rect x="49.1484" y="1.98535" width="12.9171" height="1.70116" transform="rotate(118.749 49.1484 1.98535)" fill="#4BBEEE"/>
<defs>
<linearGradient id="paint0_linear_298_191" x1="58.9065" y1="24.0675" x2="57.5552" y2="14.1707" gradientUnits="userSpaceOnUse">
<stop stop-color="white"/>
<stop offset="0.9946" stop-color="#2E2E2E"/>
</linearGradient>
</defs>
</svg>
